<?xml version="1.0" encoding="UTF-8" standalone="no"?>
<!-- Created with Inkscape (http://www.inkscape.org/) -->

<svg
   width="438.41129mm"
   height="128.00003mm"
   viewBox="0 0 438.41129 128.00003"
   version="1.1"
   id="svg1"
   xml:space="preserve"
   xmlns="http://www.w3.org/2000/svg"
   xmlns:svg="http://www.w3.org/2000/svg"><defs
     id="defs1"><filter
       style="color-interpolation-filters:sRGB"
       id="filter79"
       x="-0.084507042"
       y="-0.084507042"
       width="1.1690141"
       height="1.1690141"><feFlood
         result="flood"
         in="SourceGraphic"
         flood-opacity="1.000000"
         flood-color="rgb(33,37,41)"
         id="feFlood78" /><feGaussianBlur
         result="blur"
         in="SourceGraphic"
         stdDeviation="10.000000"
         id="feGaussianBlur78" /><feOffset
         result="offset"
         in="blur"
         dx="0.000000"
         dy="0.000000"
         id="feOffset78" /><feComposite
         result="comp1"
         operator="in"
         in="flood"
         in2="offset"
         id="feComposite78" /><feComposite
         result="comp2"
         operator="over"
         in="SourceGraphic"
         in2="comp1"
         id="feComposite79" /></filter></defs><g
     id="layer1"
     transform="translate(0,1.7053443e-5)"><g
       id="g1"
       transform="matrix(0.25000667,0,0,0.25000006,-2.1033934e-7,-1.7129858e-5)"><g
         id="g21"
         style="display:inline"
         transform="matrix(1.5421687,0,0,1.5421687,-21.928417,-9.9868699)"><path
           style="display:inline;fill:#343a40;fill-opacity:1"
           d="m 176.5,324.30078 c 14.29999,-0.1 37.70001,0.19922 52,0.69922 14.29999,0.6 31.20001,1.40078 37.5,1.80078 6.29999,0.5 12.6,1.49922 14,2.19922 2,1 2.2,1.4 1,2 -0.8,0.5 -7.60001,1.39922 -15,2.19922 -9.99999,0.9 -32.40005,1.30078 -86,1.30078 -52.49995,0 -75.70001,-0.40078 -84,-1.30078 C 89.700006,332.49922 83.50078,331.7 82.300781,331.5 81.000783,331.2 80,330.3 80,329.5 c 0,-0.8 0.99922,-1.7 2.199219,-2 1.299998,-0.2 12.400793,-0.80039 24.800781,-1.40039 12.39999,-0.5 27.20001,-1.09883 33,-1.29883 5.79999,-0.2 22.20001,-0.4 36.5,-0.5 z"
           id="path21" /><circle
           style="display:inline;mix-blend-mode:normal;fill:#002538;fill-opacity:1;stroke-width:1.01027;filter:url(#filter79)"
           id="path23"
           cx="180.21921"
           cy="172.47586"
           r="142" /></g><g
         id="g4"
         transform="matrix(1.5421687,0,0,1.5421687,-21.928417,-9.9868699)"><path
           id="Path 6"
           class="s5"
           d="m 87.0875,141.01875 c -8.06702,8.5383 -11.730739,20.53084 -14.034644,31.85413 -4.941764,24.06993 -0.28452,50.05392 12.875269,70.774 7.811767,12.11493 18.550345,22.2387 30.273435,30.57343 12.09932,7.61082 25.6471,14.07362 40.02207,15.33418 15.34636,0.52896 31.63071,0.76198 45.62637,-6.56699 3.07388,-7.14785 10.57456,-11.10843 15.8125,-16.6875 12.42492,-11.50454 24.44199,-33.77635 26.3945,-50.802 -2.84377,4.29934 -13.67,16.13134 -22.732,21.1145 -11.25602,6.18964 -24.43668,9.26002 -37.27113,9.79538 -9.51022,0.3967 -19.3504,-0.72157 -28.12614,-4.93308 -15.34304,-5.65532 -26.66497,-18.27866 -36.74863,-30.62695 -1.38826,-1.33162 -4.89953,-8.56028 -5.2881,-9.97085 3.95206,3.8692 3.09115,3.23423 5.86706,6.01962 10.64786,9.35008 23.43929,16.0391 36.74194,20.90338 1.81473,-1.39408 6.12335,-4.91916 7.07793,-6.21609 l -5.40078,-1.64192 c -30.66022,-9.84184 -53.35522,-37.48188 -60.576003,-68.93686 -0.93222,-5.39228 -2.665465,-20.19074 -10.513647,-9.98638 z"
           style="display:inline;fill:#51cf66;fill-opacity:1" /><path
           id="path1"
           style="fill:#ffffff;fill-opacity:1;stroke-width:1.65212"
           d="m 113.891,200.877 c 9.06632,28.41104 37.35673,46.21132 68.72814,46.25777 25.04135,-0.0299 48.28381,-11.99824 61.43786,-31.63677 -15.75904,10.86432 -35.86608,16.00048 -57.06872,16.93755 C 157.2161,231.32499 132.01869,219.41606 113.891,200.877 Z" /></g><g
         id="g3"
         transform="matrix(1.5421687,0,0,1.5421687,-21.928417,-9.9868699)"><path
           style="display:inline;fill:#ffffff"
           d="m 141.5,75 c 5.79999,0 12.5,0.600001 16,1.5 3.3,0.799999 9.4,3.200783 13.5,5.300781 4.4,2.199998 9.79961,5.999222 13.09961,9.199219 3.1,2.999997 7.00078,7.800003 8.80078,10.5 3.1,4.9 3.49884,5.10001 17.79883,11 7.99999,3.3 14.80039,6.5 14.90039,7 0.2,0.5 -6.39923,4.2 -14.69922,8 -8.89999,4.1 -16.39961,8.2 -18.09961,10 -1.6,1.7 -4.20078,5.3 -5.80078,8 -1.6,2.8 -3.60039,7.7 -4.40039,11 -0.9,3.3 -1.59961,9.50079 -1.59961,13.80078 0,4.2 0.89961,12.29844 2.09961,17.89844 1.1,5.69999 3.80078,15.20079 5.80078,21.30078 2.1,6.09999 4.1,11.80078 4.5,12.80078 0.5,1.5 -0.30118,1.69922 -9.70117,1.69922 -5.6,0 -13.09922,-0.7 -16.69922,-1.5 -3.6,-0.9 -8.90078,-2.5 -11.80078,-3.5 -2.8,-1.1 -7.8,-3.30039 -11,-4.90039 -3.1,-1.6 -8.39922,-4.90039 -11.69922,-7.40039 -3.3,-2.5 -8.49961,-7.09883 -11.59961,-10.29883 -3.1,-3.3 -7.8,-9.30039 -10.5,-13.40039 -2.7,-4.1 -6.29961,-11.1 -8.09961,-15.5 -1.7,-4.4 -3.90039,-12.30001 -4.900389,-17.5 -0.999999,-5.99999 -2.200783,-10.00078 -3.300782,-10.80078 C 93.19961,138.49922 92.199218,138 91.699219,138 c -0.4,0 -2.29883,1.50078 -4.298828,3.30078 -1.999998,1.7 -5.001174,5.89922 -6.701172,9.19922 -1.599999,3.3 -4.098439,9.2 -5.398438,13 -1.299998,3.8 -2.9,11.90001 -3.5,18 -0.899999,8.39999 -0.899999,13.40001 0,21 0.6,5.49999 2.200002,13.4 3.5,17.5 1.299999,4.1 3.899221,10.4 5.699219,14 1.799998,3.6 4.800783,9 6.800781,12 1.899998,3 6.899614,9.00079 11.09961,13.30078 C 103.10039,263.60078 109.4,269.4 113,272 c 3.6,2.7 10.3,6.70039 15,8.90039 4.7,2.2 12.1,4.99883 16.5,6.29883 6.79999,2 10.20001,2.30078 23,2.30078 12.59999,0 16.30001,-0.40078 23,-2.30078 4.4,-1.3 11.8,-4.29922 16.5,-6.69922 4.7,-2.5 11.4,-6.80078 15,-9.80078 3.6,-2.9 8.70039,-8.19883 11.40039,-11.79883 2.7,-3.5 6.39922,-9.60039 8.19922,-13.40039 1.9,-3.8 4.30039,-10.2 5.40039,-14 1.1,-3.8 2.49961,-11.50001 3.09961,-17 0.6,-5.49999 0.70117,-10.29922 0.20117,-10.69922 -0.4,-0.3 -4.90078,1.79883 -9.80078,4.79883 -5,3 -12.50079,6.80039 -16.80078,8.40039 -4.2,1.7 -9.49922,3.4 -11.69922,4 -3.9,1 -4,0.90078 -4.5,-1.69922 -0.2,-1.6 -0.9,-6.60078 -1.5,-11.30078 -0.5,-4.7 -1,-9.29922 -1,-10.19922 0,-1.7 2.30003,-1.80078 35,-1.80078 19.19998,0 35,0.30078 35,0.80078 0,0.4 -0.9,6.79923 -2,14.19922 -1.1,7.39999 -3.39961,18.90001 -5.09961,25.5 -1.6,6.59999 -4.20117,14.20039 -5.70117,16.90039 -1.6,2.8 -4.5,6.09922 -7,7.69922 -2.3,1.6 -6.8,3.39961 -10,4.09961 -5.2,1.1 -6.29923,1.8004 -13.19922,8.90039 -4.1,4.2 -10.7,9.70117 -14.5,12.20117 -3.9,2.5 -9.7,5.69961 -13,7.09961 -3.3,1.5 -8.7,3.39922 -12,4.19922 -3.3,0.9 -10.1,2 -15,2.5 -5.79999,0.6 -12.60001,0.60039 -19,-0.0996 -5.49999,-0.5 -13.4,-1.9 -17.5,-3 -4.1,-1.2 -12.50001,-4.5 -18.5,-7.5 -6.09999,-3 -13.9,-7.60078 -17.5,-10.30078 -3.6,-2.7 -10.300005,-8.99844 -15,-13.89844 -4.699995,-5 -10.899222,-12.8004 -13.699219,-17.4004 C 73.400784,243.3004 69.400389,235.4 67.400391,230.5 65.400393,225.6 62.699999,217.4 61.5,212.5 c -1.299999,-4.9 -2.800391,-13.90001 -3.400391,-20 -0.699999,-7.29999 -0.799218,-14.60001 -0.199218,-21.5 0.499999,-5.79999 1.800391,-14.3 2.90039,-19 1.099999,-4.7 3.100002,-11.4 4.5,-15 1.299999,-3.6 3.800002,-9.2 5.5,-12.5 1.599999,-3.3 5.200003,-9.2 8,-13 2.699998,-3.8 7.798832,-9.90039 11.298828,-13.400391 C 93.599606,94.599613 99.000003,89.999998 102,88 c 3,-1.999998 7.5,-4.800001 10,-6 2.5,-1.299999 7.9,-3.399611 12,-4.599609 C 129.49999,75.700392 134.10001,75.1 141.5,75 Z"
           id="path14" /><circle
           style="display:inline;fill:#002538;fill-opacity:1;stroke-width:0.764932"
           id="path26"
           cx="141.72975"
           cy="119.46189"
           r="17" /></g><g
         id="g2"
         transform="matrix(1.5421687,0,0,1.5421687,-21.928417,-9.9868699)"><path
           id="rect28"
           style="display:inline;fill:#ffffff;fill-opacity:1;stroke-width:1.52711;stroke-dasharray:none"
           d="m 213.5,165.04297 c -6.64799,0 -12,4.906 -12,11 v 11 h 12 56 12 v -11 c 0,-6.094 -5.35201,-11 -12,-11 z" /><rect
           style="display:inline;fill:#002538;fill-opacity:1;stroke-width:1.30266"
           id="rect26"
           width="60"
           height="6"
           x="211.53905"
           y="173.00891"
           ry="3" /></g><path
         d="m 410.62895,294.34445 c -0.005,0.46616 -1.1657,8.44592 -2.15363,15.28614 a 15.421687,15.421687 0 0 1 12.18674,15.03314 15.421687,15.421687 0 0 1 -15.42168,15.42169 15.421687,15.421687 0 0 1 -1.98795,-0.39458 c -1.14773,5.55062 -2.31048,10.81541 -3.36145,14.96988 a 30.843373,30.843373 0 0 0 5.3494,0.84638 30.843373,30.843373 0 0 0 30.84337,-30.84337 30.843373,30.843373 0 0 0 -25.4548,-30.31928 z"
         style="display:inline;fill:#ffffff;fill-opacity:1;stroke-width:1.63433"
         id="path2" /><g
         id="g24"
         transform="matrix(1.5421687,0,0,1.5421687,-21.928417,-9.9868699)"><circle
           style="fill:#ffffff;stroke-width:0.993796"
           id="path24"
           cx="188.04637"
           cy="58"
           r="9" /><circle
           style="fill:#ffffff;stroke-width:0.993796"
           id="path24-6"
           cx="216.94728"
           cy="76"
           r="9" /></g><g
         id="Background"
         transform="matrix(1.5421687,0,0,1.5421687,328.13663,95.977489)"><path
           id="Path 1-8"
           class="s1"
           d="m 42.3,45 c 0.4,3.9 0.2,9.1 -0.3,11.8 -0.6,2.7 -2.9,7.4 -5.5,11.2 -3.5,5.1 -4.5,7.4 -4.5,10.5 0,2.2 0.5,4.6 1.2,5.3 0.7,0.7 2.1,1.2 3.1,1.2 0.9,0 2,-1 2.3,-2.3 0.3,-1.2 2.5,-4.2 4.9,-6.7 2.4,-2.5 5,-5.8 5.8,-7.5 0.8,-1.7 1.8,-4.6 2.2,-6.5 0.4,-1.9 0.2,-6 -0.4,-9 C 50.4,50 48.6,45.4 47,42.7 45.3,40.1 43.5,38 42.8,38 42,38 41.9,40 42.3,45 Z" /><path
           id="Path 2-9"
           class="s1"
           d="m 15.4,10.8 c 0.4,0.9 1.7,4.8 2.9,8.7 1.6,5.2 2.1,9.4 2.1,16 -0.1,5.8 -0.7,10.6 -1.8,13.5 -0.9,2.5 -3.4,7.4 -5.6,11 -2.1,3.6 -4.4,8.8 -5,11.5 -0.9,4 -0.9,5.8 0.2,9 0.9,2.9 1.9,4.1 3.6,4.3 1.4,0.1 2.4,-0.4 2.6,-1.5 0.3,-1 0.7,-3.1 1,-4.8 0.3,-1.7 3.5,-7 7.2,-12 4.3,-5.9 7.1,-10.9 8.1,-14.5 1,-3.6 1.4,-8.1 1.1,-13 C 31.5,33.2 30.7,30 28.3,25 26.6,21.4 23.3,16.4 21.1,13.7 18.8,11.1 16.5,9 15.8,9 15.1,9 15,9.7 15.4,10.8 Z" /></g></g><text
       xml:space="preserve"
       style="font-style:italic;font-size:84.6667px;line-height:0;font-family:'Crete Round';-inkscape-font-specification:'Crete Round Italic';text-align:center;letter-spacing:1.32292px;text-anchor:middle;fill:#51cf66;fill-opacity:1;stroke-width:0.264583"
       x="285.81015"
       y="85.420677"
       id="text1"><tspan
         id="tspan1"
         style="font-size:84.6667px;fill:#51cf66;fill-opacity:1;stroke-width:0.264583"
         x="286.47162"
         y="85.420677">tozydev</tspan></text></g><style
     id="style1">
		.s0 { fill: #052538 } 
		.s1 { fill: #fcfdfd } 
		.s2 { opacity: 1;fill: #8b7786 } 
		.s3 { opacity: 1;fill: #d7e2e6 } 
		.s4 { opacity: .4;fill: #e5eff1 } 
		.s5 { fill: #f10247 } 
	</style><style
     id="style1-2">
		.s0 { fill: #022437 } 
		.s1 { fill: #fafbfb } 
	</style></svg>
